<svg xmlns="http://www.w3.org/2000/svg" viewBox="0 0 120 31">
  <g fill="#FFF" fill-rule="evenodd">
    <path d="M32.9 13.8c0-1.4-.3-2.6-.9-3.6-.4-.6-.9-1-1.6-1.3-.7-.2-1.6-.4-2.7-.4h-3.6l-.1.1-5.8 21.8v.1h2.4c2.8 0 4.9-.4 6.2-1.4 1-.8 2-1.9 2.8-3.3.8-1.6 1.5-3.5 2.2-6 .7-2.5 1-4.6 1-6ZM22 27.8l4.4-16.6h.3c1.5 0 2.4.6 2.6 1.8.2 1.3 0 3.6-1 6.9-.8 3-1.7 5.2-2.6 6.3-.8 1-2 1.5-3.7 1.6ZM41.7 23c.3-1.3.6-2.4.6-3.4.1-1 0-1.8-.2-2.4-.2-.7-.6-1.1-1-1.5-.6-.3-1.3-.5-2-.5-3.2 0-5.4 2.6-6.8 7.7-.8 3.2-.8 5.4.1 6.6.6.7 1.4 1 2.6 1 3.1 0 5.3-2.5 6.7-7.4Zm-6 4.8c-.5 0-.9-.3-1-1 0-.7.2-2 .7-3.9.5-1.8 1-3.1 1.5-3.9.4-.7 1-1 1.5-1 .6 0 1 .3 1 1s-.2 2-.7 4c-.5 1.8-1 3-1.4 3.8-.5.7-1 1-1.6 1ZM58.8 16.3c-.4-.5-1.1-.8-2.2-.8-1.3 0-2.5.6-3.5 1.9-.2-1.3-1-1.9-2.3-1.9-1.1 0-2.2.6-3.3 1.7l.4-1.3v-.1H45l-4 14.6v.1H44l2.6-9.6c.3-1 .6-1.7 1-2.1.3-.4.8-.6 1.4-.6h.6c.2.2.3.3.3.5.1.2.1.5 0 .8 0 .4 0 .8-.2 1.3L47 30.4v.1H50l2.6-9.6c.3-1 .6-1.8 1-2.2.2-.3.7-.5 1.3-.5.5 0 .8.1 1 .5 0 .3 0 1-.4 2.1L53 30.4v.1h2.8L59 18.8c.3-1 .3-1.9-.2-2.5ZM70.4 15.5H67.5l-.3 1.3c-.4-1-1.2-1.6-2.2-1.6-1.3 0-2.4.7-3.2 1.9-1 1.2-1.7 3-2.4 5.6-.7 2.7-1 4.7-.7 6 .2 1.2 1 1.9 2.3 1.9.6 0 1.2-.2 1.7-.5l1.3-1.2-.4 1.3.1.1H66.5l4-14.7h-.1ZM65.6 23c-.5 1.7-1 3-1.5 3.9-.4.7-1 1.1-1.5 1.1-.6 0-.9-.3-1-1 0-.8.2-2.1.7-4 .5-1.9 1-3.2 1.5-3.9.4-.7 1-1 1.5-1 .6 0 .9.3 1 1 0 .8-.2 2.1-.7 3.9ZM74.6 15.8H71.8l-4 14.6v.1H70.7l4-14.6v-.1ZM73.8 13.4c.5 0 1-.2 1.5-.6.4-.3.8-.8.9-1.3.1-.6 0-1-.2-1.4-.3-.4-.7-.6-1.2-.6s-1 .2-1.6.6c-.4.3-.7.8-.9 1.3-.1.6 0 1 .2 1.4.3.4.7.6 1.3.6ZM88.3 8.6h-3.1L83 16.8a44.8 44.8 0 0 0-1.3 6.4c0-2 0-4-.2-5.8L81 8.7l-.1-.1H78L72 30.4v.1h3.1l2.4-9.5.2-.8.1-.5.6-2.7.3-1.5v5.1l.7 9.9h2.9l6-21.8v-.1ZM94.2 25.2h-2.7c-.5 1.9-1.3 2.8-2.3 2.8a.8.8 0 0 1-.8-.3c-.4-.6-.3-2 .2-4.1h6.1l.1-.1.1-.3c.9-3.4.9-5.7 0-7-.6-.6-1.4-1-2.4-1a5 5 0 0 0-4 2 20 20 0 0 0-3.3 9.1c0 1 0 1.8.3 2.4.2.6.5 1.1 1 1.4.5.3 1.2.5 2 .5 2.7 0 4.6-1.8 5.7-5.3Zm-2.4-7.4c.5 0 .8.2.8.7.2.5 0 1.4-.2 2.9h-3.2c.5-1.4 1-2.4 1.3-2.8.3-.6.8-.8 1.3-.8ZM102.3 23.9a4 4 0 0 0-.5-1l-1-1.2c-1-.9-1.4-1.7-1.2-2.3l.3-.6.4-.5.6-.4h.7c.7 0 1.3.1 1.8.6h.1l.8-2.6c-.7-.5-1.5-.8-2.4-.8-1.2 0-2.2.4-3.2 1.2-1 .7-1.6 1.7-1.9 3-.2.8-.2 1.6 0 2.3.3.6.8 1.3 1.7 2.2l.7.7.3.6v1c-.3 1.2-1 1.8-2.2 1.8-.7 0-1.3-.3-1.9-.8h-.1l-.8 2.6v.2c.7.4 1.5.7 2.3.7 1.3 0 2.4-.4 3.4-1.2a6 6 0 0 0 2-3.2 4 4 0 0 0 .1-2.3ZM108.5 13.4c.5 0 1-.2 1.5-.6.4-.3.8-.8.9-1.3.1-.6 0-1-.2-1.4-.3-.4-.7-.6-1.2-.6s-1 .2-1.6.6c-.4.3-.7.8-.9 1.3-.1.6 0 1 .2 1.4.3.4.7.6 1.3.6ZM109.3 15.8h-2.8l-4 14.6v.1H105.4l4-14.6v-.1ZM119.9 15.5H117l-.4 1.3c-.4-1-1.1-1.6-2.2-1.6-1.2 0-2.3.7-3.2 1.9-.9 1.2-1.7 3-2.4 5.6-.7 2.7-1 4.7-.7 6 .3 1.2 1 1.9 2.3 1.9.6 0 1.2-.2 1.7-.5.4-.2.8-.7 1.3-1.2l-.4 1.3.1.1H116l4-14.7h-.1Zm-4.8 7.4c-.5 1.7-1 3-1.4 3.9-.5.7-1 1.1-1.6 1.1-.6 0-.9-.3-1-1 0-.8.3-2.1.8-4s1-3.2 1.4-3.9c.5-.7 1-1 1.6-1 .5 0 .8.3.9 1 0 .8-.2 2.1-.7 3.9ZM13.9 12.4.1 18.9l13.8 10.6zM23.5.1 15.4 4v26.6z"/>
  </g>
</svg>